<svg xmlns="http://www.w3.org/2000/svg" width="1200" height="1200"><line x1="1047.59" y1="773.40" x2="813.95" y2="1029.68" stroke="#888" stroke-width="1" /><line x1="1047.59" y1="773.40" x2="1008.10" y2="852.69" stroke="#888" stroke-width="1" /><line x1="1047.59" y1="773.40" x2="1080.00" y2="600.00" stroke="#888" stroke-width="1" /><line x1="1047.59" y1="773.40" x2="889.26" y2="983.05" stroke="#888" stroke-width="1" /><line x1="1047.59" y1="773.40" x2="954.72" y2="923.37" stroke="#888" stroke-width="1" /><line x1="1047.59" y1="773.40" x2="555.71" y2="1077.95" stroke="#888" stroke-width="1" /><line x1="1047.59" y1="773.40" x2="813.95" y2="1029.68" stroke="#888" stroke-width="1" /><line x1="1047.59" y1="773.40" x2="1080.00" y2="600.00" stroke="#888" stroke-width="1" /><line x1="120.00" y1="600.00" x2="1071.83" y2="688.20" stroke="#888" stroke-width="1" /><line x1="120.00" y1="600.00" x2="889.26" y2="983.05" stroke="#888" stroke-width="1" /><line x1="120.00" y1="600.00" x2="954.72" y2="923.37" stroke="#888" stroke-width="1" /><line x1="120.00" y1="600.00" x2="889.26" y2="216.95" stroke="#888" stroke-width="1" /><line x1="120.00" y1="600.00" x2="310.74" y2="216.95" stroke="#888" stroke-width="1" /><line x1="191.90" y1="347.31" x2="1071.83" y2="688.20" stroke="#888" stroke-width="1" /><line x1="191.90" y1="347.31" x2="1008.10" y2="852.69" stroke="#888" stroke-width="1" /><line x1="191.90" y1="347.31" x2="555.71" y2="1077.95" stroke="#888" stroke-width="1" /><line x1="731.36" y1="138.32" x2="386.05" y2="170.32" stroke="#888" stroke-width="1" /><circle cx="1080.00" cy="600.00" r="10" fill="#2a9d8f" /><text x="1080.00" y="624.00" font-size="12" text-anchor="middle" fill="#264653">README.md</text><circle cx="1071.83" cy="688.20" r="10" fill="#2a9d8f" /><text x="1071.83" y="712.20" font-size="12" text-anchor="middle" fill="#264653">GETTING_STARTED.md</text><circle cx="1047.59" cy="773.40" r="10" fill="#e76f51" /><text x="1047.59" y="797.40" font-size="12" text-anchor="middle" fill="#264653">overview.md</text><circle cx="1008.10" cy="852.69" r="10" fill="#2a9d8f" /><text x="1008.10" y="876.69" font-size="12" text-anchor="middle" fill="#264653">README.md</text><circle cx="954.72" cy="923.37" r="10" fill="#2a9d8f" /><text x="954.72" y="947.37" font-size="12" text-anchor="middle" fill="#264653">README.md</text><circle cx="889.26" cy="983.05" r="10" fill="#2a9d8f" /><text x="889.26" y="1007.05" font-size="12" text-anchor="middle" fill="#264653">README.md</text><circle cx="813.95" cy="1029.68" r="10" fill="#2a9d8f" /><text x="813.95" y="1053.68" font-size="12" text-anchor="middle" fill="#264653">README.md</text><circle cx="731.36" cy="1061.68" r="10" fill="#e76f51" /><text x="731.36" y="1085.68" font-size="12" text-anchor="middle" fill="#264653">nef_integration_guide.md</text><circle cx="644.29" cy="1077.95" r="10" fill="#e76f51" /><text x="644.29" y="1101.95" font-size="12" text-anchor="middle" fill="#264653">UI.md</text><circle cx="555.71" cy="1077.95" r="10" fill="#2a9d8f" /><text x="555.71" y="1101.95" font-size="12" text-anchor="middle" fill="#264653">antenna_and_path_loss.md</text><circle cx="468.64" cy="1061.68" r="10" fill="#e76f51" /><text x="468.64" y="1085.68" font-size="12" text-anchor="middle" fill="#264653">test_description.md</text><circle cx="386.05" cy="1029.68" r="10" fill="#e76f51" /><text x="386.05" y="1053.68" font-size="12" text-anchor="middle" fill="#264653">test_description_location_reporting.md</text><circle cx="310.74" cy="983.05" r="10" fill="#e76f51" /><text x="310.74" y="1007.05" font-size="12" text-anchor="middle" fill="#264653">test_description_loss_of_connectivity.md</text><circle cx="245.28" cy="923.37" r="10" fill="#e76f51" /><text x="245.28" y="947.37" font-size="12" text-anchor="middle" fill="#264653">test_description_ue_reachability.md</text><circle cx="191.90" cy="852.69" r="10" fill="#e76f51" /><text x="191.90" y="876.69" font-size="12" text-anchor="middle" fill="#264653">README.md</text><circle cx="152.41" cy="773.40" r="10" fill="#e76f51" /><text x="152.41" y="797.40" font-size="12" text-anchor="middle" fill="#264653">QWEN.md</text><circle cx="128.17" cy="688.20" r="10" fill="#e76f51" /><text x="128.17" y="712.20" font-size="12" text-anchor="middle" fill="#264653">QWEN_refined.md</text><circle cx="120.00" cy="600.00" r="10" fill="#e76f51" /><text x="120.00" y="624.00" font-size="12" text-anchor="middle" fill="#264653">README.md</text><circle cx="128.17" cy="511.80" r="10" fill="#e76f51" /><text x="128.17" y="535.80" font-size="12" text-anchor="middle" fill="#264653">Table of Contents.md</text><circle cx="152.41" cy="426.60" r="10" fill="#e76f51" /><text x="152.41" y="450.60" font-size="12" text-anchor="middle" fill="#264653">docs_link_graph.md</text><circle cx="191.90" cy="347.31" r="10" fill="#e76f51" /><text x="191.90" y="371.31" font-size="12" text-anchor="middle" fill="#264653">THESIS_SUMMARY.md</text><circle cx="245.28" cy="276.63" r="10" fill="#e76f51" /><text x="245.28" y="300.63" font-size="12" text-anchor="middle" fill="#264653">feature_ranges_and_alerts.md</text><circle cx="310.74" cy="216.95" r="10" fill="#2a9d8f" /><text x="310.74" y="240.95" font-size="12" text-anchor="middle" fill="#264653">feature_transforms.md</text><circle cx="386.05" cy="170.32" r="10" fill="#2a9d8f" /><text x="386.05" y="194.32" font-size="12" text-anchor="middle" fill="#264653">nef_ml_integration.md</text><circle cx="468.64" cy="138.32" r="10" fill="#e76f51" /><text x="468.64" y="162.32" font-size="12" text-anchor="middle" fill="#264653">mobility_metric_tracker.md</text><circle cx="555.71" cy="122.05" r="10" fill="#e76f51" /><text x="555.71" y="146.05" font-size="12" text-anchor="middle" fill="#264653">configuration.md</text><circle cx="644.29" cy="122.05" r="10" fill="#e76f51" /><text x="644.29" y="146.05" font-size="12" text-anchor="middle" fill="#264653">feature_store.md</text><circle cx="731.36" cy="138.32" r="10" fill="#e76f51" /><text x="731.36" y="162.32" font-size="12" text-anchor="middle" fill="#264653">qos_solution_architecture.md</text><circle cx="813.95" cy="170.32" r="10" fill="#e76f51" /><text x="813.95" y="194.32" font-size="12" text-anchor="middle" fill="#264653">qos_validation_inventory.md</text><circle cx="889.26" cy="216.95" r="10" fill="#2a9d8f" /><text x="889.26" y="240.95" font-size="12" text-anchor="middle" fill="#264653">synthetic_qos_dataset.md</text><circle cx="954.72" cy="276.63" r="10" fill="#e76f51" /><text x="954.72" y="300.63" font-size="12" text-anchor="middle" fill="#264653">README.md</text><circle cx="1008.10" cy="347.31" r="10" fill="#e76f51" /><text x="1008.10" y="371.31" font-size="12" text-anchor="middle" fill="#264653">README.md</text><circle cx="1047.59" cy="426.60" r="10" fill="#e76f51" /><text x="1047.59" y="450.60" font-size="12" text-anchor="middle" fill="#264653">test_report.md</text><circle cx="1071.83" cy="511.80" r="10" fill="#e76f51" /><text x="1071.83" y="535.80" font-size="12" text-anchor="middle" fill="#264653">README.md</text></svg>